<svg xmlns:rdf="http://www.w3.org/1999/02/22-rdf-syntax-ns#" xmlns="http://www.w3.org/2000/svg" xmlns:cc="http://creativecommons.org/ns#" xmlns:dc="http://purl.org/dc/elements/1.1/" id="svg2" height="36" width="175" version="1.1">
 <metadata id="metadata10">
  <rdf:RDF>
   <cc:Work rdf:about="">
    <dc:format>image/svg+xml</dc:format>
    <dc:type rdf:resource="http://purl.org/dc/dcmitype/StillImage"/>
    <dc:title/>
   </cc:Work>
  </rdf:RDF>
 </metadata>
 <path id="path4" d="m73.05 34.66c-1.964-0.264-4.275-1.14-5.83-2.21-0.88-0.606-2.542-2.243-3.156-3.11-1.407-1.98-2.017-3.956-2.023-6.545 0-2.008 0.3-3.442 1.06-5.016 1.5-3.09 4.6-5.6 8.25-6.65 1.72-0.5 2.96-0.63 5.27-0.56 2.49 0.07 3.97 0.4 5.8 1.3 2.32 1.14 3.69 2.51 4.2 4.21 0.97 3.19-1.15 6.01-4.5 5.99-1.09-0.01-1.72-0.19-2.39-0.7-0.59-0.46-0.83-0.86-1.34-2.29-0.53-1.5-0.91-2.07-1.58-2.39-0.7-0.34-1.72-0.35-2.36-0.02-2.71 1.38-2.69 5.86 0.04 8.66 1.44 1.48 2.68 1.94 4.95 1.84 1.18-0.06 1.51-0.13 2.57-0.55 0.67-0.27 1.45-0.51 1.73-0.54 0.7-0.07 1.32 0.28 1.79 1.03 1.64 2.63-2 6.34-7.21 7.34-1.24 0.24-4.04 0.33-5.23 0.17zm52.05 0c-5.31-0.662-9.17-3.728-10.417-8.27-0.404-1.474-0.404-4.665 0-6.156 0.732-2.69 2.4-4.987 4.93-6.792 4.376-3.12 10.834-3.892 15.686-1.872 6.03 2.51 9.15 9.66 6.6 15.126-1.73 3.71-6.37 6.92-11.26 7.784-1.4 0.247-4.27 0.34-5.56 0.18zm5.646-5.98c0.877-0.52 1.17-1.868 0.906-4.16-0.45-3.9-1.557-7.183-2.736-8.126-0.666-0.533-1.72-0.61-2.47-0.183-0.768 0.44-1.218 1.41-1.218 2.62 0 1.2 0.386 3.42 0.954 5.48 0.837 3.04 1.45 4.11 2.592 4.54 0.587 0.22 1.453 0.15 1.972-0.16zm23.876 5.978c-4.032-0.435-4.59-0.472-5.39-0.36-0.562 0.08-1.065 0.072-1.54-0.025-1.01-0.206-1.825-1.068-2.685-2.836-0.76-1.56-1.04-2.55-1.04-3.676 0-0.97 0.27-1.62 0.782-1.89 0.42-0.21 1.23-0.24 1.73-0.05 0.19 0.08 1.19 0.96 2.22 1.97 1.04 1.03 2.13 1.97 2.45 2.13 1.08 0.56 2.45 0.32 2.88-0.51 0.55-1.06-0.02-1.81-2.23-2.94-4.39-2.24-6.44-4.39-6.83-7.2-0.34-2.39 0.37-4.46 2.12-6.24 1.73-1.76 3.6-2.48 6.41-2.48 0.83 0 2.01 0.11 2.89 0.26 1.91 0.33 2.3 0.32 3.6-0.07 0.95-0.28 1.15-0.31 1.62-0.18 1.84 0.51 4.27 4.76 3.77 6.62-0.16 0.57-0.78 1.25-1.34 1.46-0.57 0.21-1.64 0.16-2.21-0.11-0.53-0.25-0.99-0.61-2.62-2.02-1.15-1-1.76-1.32-2.53-1.32-0.53 0-0.66 0.07-1.1 0.5-0.4 0.4-0.5 0.6-0.5 0.97 0 1.07 0.48 1.49 3.33 2.87 3.47 1.68 5.75 3.49 6.54 5.19 1.15 2.48 0.6 5.33-1.41 7.32-2.24 2.21-5.17 3.08-8.99 2.67zm-149.09-0.13c-1.634-0.095-2.533-0.293-3.326-0.73-0.79-0.438-1.115-0.87-1.185-1.586-0.08-0.814 0.15-1.12 1.28-1.718 1.29-0.684 1.61-0.998 1.83-1.79 0.38-1.344 0.65-4.83 0.86-11.315 0.21-6.32 0-8.97-0.8-9.99-0.14-0.19-0.69-0.58-1.21-0.86-1.549-0.829-2.049-1.589-1.759-2.649 0.144-0.54 0.822-1.326 1.4-1.624 1.12-0.58 4.205-1.028 7.08-1.026 3.33 0 4.67 0.347 5.38 1.384 0.194 0.29 1.613 2.78 3.15 5.535 3.4 6.09 3.816 6.78 4.24 6.97 1.13 0.52 1.53 0.04 4.15-4.99 3.27-6.28 3.34-6.4 4.18-7.26 1.26-1.29 2.594-1.64 6.227-1.62 4.044 0.01 6.242 0.77 6.67 2.31 0.306 1.1 0.132 1.51-1.2 2.79-1.24 1.19-1.366 1.47-1.69 3.78-0.586 4.18-0.24 16.62 0.51 18.41 0.104 0.25 0.464 0.64 0.844 0.93 0.36 0.27 0.9 0.7 1.2 0.96 0.52 0.45 0.54 0.5 0.54 1.23 0 0.62-0.06 0.83-0.35 1.21-0.4 0.52-1.3 0.98-2.53 1.3-1.39 0.36-5.05 0.52-7.88 0.35-3.61-0.22-5.1-0.61-5.9-1.57-0.26-0.32-0.33-0.54-0.33-1.04 0-0.84 0.08-0.97 1.14-1.83 1.1-0.9 1.38-1.47 1.57-3.27 0.21-1.86 0.11-6.45-0.13-6.75-0.46-0.56-1.16-0.46-1.78 0.24-0.58 0.66-1.26 2-3.36 6.55-1.07 2.33-2.12 4.57-2.34 4.98-0.77 1.46-1.74 1.9-2.49 1.13-0.58-0.59-1.98-3.31-4.233-8.21-1.16-2.52-2.25-4.8-2.42-5.06-0.47-0.71-1.29-0.81-1.62-0.19-0.08 0.15-0.2 1.11-0.25 2.14-0.23 4.15-0.09 7.08 0.37 7.71 0.13 0.17 0.69 0.58 1.25 0.9 0.823 0.48 1.043 0.676 1.19 1.06 0.23 0.59 0.11 1.25-0.3 1.74-0.91 1.08-4.07 1.65-7.96 1.42zm46.595-0.01c-4.737-0.19-6.482-0.928-6.482-2.743 0-0.8 0.19-1.083 1.31-1.943 1.467-1.13 1.72-2.266 1.588-7.17-0.047-1.764-0.132-3.484-0.188-3.822-0.128-0.76-0.577-1.262-1.59-1.777-0.89-0.452-1.247-0.96-1.247-1.78 0-1.194 0.69-1.787 3-2.573 3.077-1.048 6.78-1.885 8.876-2.01 1.248-0.073 1.3-0.064 1.67 0.253l0.38 0.328 0.064 8.26c0.063 8.08 0.07 8.27 0.336 8.85 0.154 0.33 0.514 0.78 0.825 1.03 1.63 1.3 1.9 1.84 1.45 2.92-0.72 1.74-3.9 2.43-10 2.19zm42.36 0.01c-4.572-0.203-6.483-1.047-6.483-2.864 0-0.922 0.318-1.435 1.405-2.263 1.07-0.81 1.22-1.05 1.41-2.19 0.18-1.12 0.43-7.32 0.32-8.2-0.13-1.07-0.35-1.37-1.29-1.82-1.14-0.54-1.6-1.08-1.6-1.87 0-0.64 0.3-1.28 0.81-1.72 1.51-1.3 7.41-2.93 10.63-2.93 1.67 0 1.8 0.12 2.04 1.75 0.21 1.53 0.39 1.88 0.92 1.83 0.32-0.03 0.55-0.22 1.16-0.98 0.93-1.15 1.77-1.83 2.74-2.22 0.61-0.24 0.98-0.29 2.15-0.3 1.29 0 1.48 0.03 2.21 0.37 1.42 0.66 2.37 1.91 2.81 3.73 0.18 0.75 0.19 1.01 0.06 1.78-0.43 2.51-2.25 4.41-4.64 4.84-1.82 0.33-3.2-0.13-4.85-1.6-1.31-1.17-1.91-1.26-2.32-0.34-0.18 0.4-0.21 0.96-0.21 3.81 0.01 3.49 0.13 4.63 0.55 5.2 0.16 0.21 0.62 0.46 1.33 0.72 1.79 0.65 2.29 1.16 2.29 2.34 0 0.47-0.1 0.77-0.36 1.2-0.74 1.16-2.28 1.62-5.87 1.73-1.06 0.04-2.25 0.08-2.63 0.1-0.39 0.02-1.57-0.01-2.63-0.05zm-45.63-25.54c-1.474-0.262-2.71-1.323-2.884-2.475-0.265-1.77 1.05-3.044 4.163-4.033 1.926-0.61 2.636-0.726 4.492-0.725 1.904 0 2.787 0.216 3.673 0.89 1.02 0.78 1.24 2.22 0.52 3.452-0.63 1.08-2.71 2.153-5.13 2.653-1.38 0.285-3.87 0.408-4.82 0.238zm120.07-0.45c-0.7-0.25-1.4-0.85-1.812-1.553-0.26-0.442-0.356-0.81-0.402-1.532-0.056-0.872-0.027-1.02 0.345-1.775 0.476-0.968 1.138-1.52 2.186-1.826 1.908-0.555 4.036 0.525 4.57 2.318 0.238 0.806 0.238 1.277-0.003 2.088-0.29 0.99-0.82 1.624-1.74 2.083-0.68 0.34-0.93 0.4-1.71 0.39-0.5-0.01-1.14-0.09-1.43-0.19zm3.046-0.896c1.437-1.01 1.66-3.072 0.47-4.36-1.25-1.357-3.468-1.212-4.526 0.295-0.307 0.436-0.397 0.716-0.438 1.367-0.07 0.985 0.12 1.61 0.66 2.224 0.61 0.7 1.25 0.946 2.35 0.9 0.78-0.03 1-0.095 1.47-0.426zm-2.977-2.45v-1.88l0.95 0.08c1.163 0.1 1.554 0.265 1.753 0.744 0.12 0.288 0.11 0.454-0.01 0.754-0.09 0.212-0.2 0.385-0.25 0.385s-0.2 0.078-0.33 0.173c-0.23 0.165-0.22 0.2 0.14 0.738 0.61 0.907 0.61 0.886 0.17 0.886-0.34 0-0.46-0.102-0.85-0.706-0.3-0.464-0.54-0.706-0.71-0.706-0.22 0-0.26 0.09-0.26 0.706 0 0.667-0.02 0.706-0.32 0.706h-0.33v-1.88zm1.806-0.306c0.28-0.15 0.325-0.51 0.094-0.74-0.085-0.085-0.402-0.154-0.706-0.154h-0.552v0.513c0 0.503 0.01 0.514 0.458 0.514 0.252 0 0.57-0.06 0.706-0.14z" fill="#004c9d"/>
</svg>